PathFileType	4	(X/Y/Z)	../Python\walking\Walking03\task.trc
DataRate	CameraRate	NumFrames	NumMarkers	Units	OrigDataRate	OrigDataStartFrame	OrigNumFrames
200.000000	200.000000	6	30	mm	200.000000	0	671
Frame#	Time	CLAV			STRN			RASI			LASI			RTH1			RTH2			RTH3			RTB1			RTB2			RTB3			RD5M			RTOE			LTH1			LTH2			LTB1			LTB2			LTB3			LTOE			LD5M			LTH3			RHEE			RPSI			T10			PE03			PE02			PE01			C7			LPSI			LHEE			RBAK			
		X1	Y1	Z1	X2	Y2	Z2	X3	Y3	Z3	X4	Y4	Z4	X5	Y5	Z5	X6	Y6	Z6	X7	Y7	Z7	X8	Y8	Z8	X9	Y9	Z9	X10	Y10	Z10	X11	Y11	Z11	X12	Y12	Z12	X13	Y13	Z13	X14	Y14	Z14	X15	Y15	Z15	X16	Y16	Z16	X17	Y17	Z17	X18	Y18	Z18	X19	Y19	Z19	X20	Y20	Z20	X21	Y21	Z21	X22	Y22	Z22	X23	Y23	Z23	X24	Y24	Z24	X25	Y25	Z25	X26	Y26	Z26	X27	Y27	Z27	X28	Y28	Z28	X29	Y29	Z29	X30	Y30	Z30	

1	0	-1460.168090820313	1432.569091796875	203.5234375000001	-1409.896850585938	1241.737182617188	217.5727386474611	-1438.005981445313	1027.8349609375	353.1212158203126	-1420.149291992188	1032.642578125	78.954704284668	-1414.858764648438	776.4328613281255	400.5658264160159	-1456.791870117188	733.967712402344	377.1836853027345	-1420.584228515625	700.264831542969	374.9095153808595	-1383.94091796875	403.1665039062502	350.9510192871095	-1444.088500976563	387.2093200683596	348.933074951172	-1429.44775390625	338.2769470214845	345.2744750976564	-1522.875732421875	60.44089126586917	364.6562805175782	-1465.81787109375	51.29832458496097	335.5903320312501	-1501.538818359375	721.2310791015627	55.50179290771487	-1532.629516601563	683.621032714844	66.15699768066409	-1544.999267578126	358.076385498047	103.2437286376954	-1578.041137695313	323.856903076172	113.3665847778321	-1531.523193359375	282.4306945800782	118.1664505004883	-1420.069580078125	30.42994880676271	195.7629699707032	-1469.200073242188	17.16300010681153	143.074447631836	-1482.8447265625	648.3321533203127	73.61367034912112	-1639.827514648438	143.7880859375001	263.8502197265626	-1594.040039062501	1072.08154296875	263.6611633300782	-1628.203613281251	1268.40966796875	198.5821380615236	-1601.137817382813	1061.435302734375	190.8790893554688	-1599.265625000001	1060.100830078125	239.6749114990236	-1588.161987304688	1120.689331054688	217.7525939941407	-1564.714355468751	1526.444213867188	187.885482788086	-1595.319702148438	1076.232055664063	165.2291717529297	-1635.000854492188	41.40484619140626	192.8475646972657	-1598.775390625001	1446.063842773438	359.2249450683595	
2	0.005	-1453.791015625	1432.456909179688	203.4042053222657	-1403.655639648438	1241.642822265625	217.2601470947267	-1431.535400390625	1028.196411132813	352.6775512695314	-1414.395385742188	1032.223876953125	78.64453887939456	-1406.095092773438	777.7116088867192	400.4547424316409	-1447.692138671875	734.7841796875002	377.8968505859376	-1411.168212890625	701.480163574219	375.1879882812501	-1370.18115234375	402.9392089843752	350.3124389648439	-1429.728149414063	385.2863769531252	348.9002990722657	-1413.872192382813	336.8753051757814	344.7528686523439	-1499.295532226563	56.92133712768558	364.456024169922	-1442.076538085938	49.70152664184573	335.2091369628907	-1498.191772460938	721.2488403320315	55.52437210083011	-1529.547973632813	683.9093017578127	66.39546966552737	-1543.973754882813	358.2129821777345	103.2523956298829	-1577.132080078126	324.1260986328126	113.4515228271485	-1530.755615234375	282.5093383789064	118.1867904663087	-1419.991577148438	30.40903663635255	195.7369232177736	-1469.21435546875	17.17561721801759	143.1240234375001	-1480.033081054688	648.1467285156252	73.49607086181643	-1619.155273437501	136.3534698486329	263.9523010253907	-1587.751586914063	1072.109130859375	264.078582763672	-1621.994995117188	1268.439331054688	198.4233856201173	-1595.039672851563	1061.246704101563	191.4275970458985	-1593.046386718751	1060.07861328125	240.1218566894532	-1582.070312500001	1120.6513671875	217.9231872558595	-1558.309448242188	1526.428466796875	187.8384704589844	-1589.359741210938	1076.083984375	165.6013793945313	-1634.856323242188	41.66372299194337	193.3104400634767	-1592.375610351563	1445.878784179688	359.021209716797	
3	0.01	-1447.401977539063	1432.276123046875	203.2925415039064	-1397.408935546875	1241.469360351563	216.9669189453126	-1425.067504882813	1028.476196289063	352.2667846679689	-1408.626342773438	1031.740478515625	78.35749053955081	-1397.380615234375	778.912963867188	400.3333740234377	-1438.651611328125	735.5344848632815	378.639129638672	-1401.8125	702.621765136719	375.4730224609376	-1356.520874023438	402.6426696777346	349.6712036132814	-1415.402709960938	383.2754211425782	348.8680725097657	-1398.323364257813	335.4332275390626	344.2089233398439	-1475.599731445313	53.54620361328128	364.2098693847657	-1418.27880859375	48.25330352783206	334.8053283691407	-1494.81005859375	721.2382812500002	55.53364944458011	-1526.414428710938	684.1580810546877	66.62892150878909	-1542.901123046876	358.3388061523439	103.281852722168	-1576.181396484376	324.3864135742189	113.547462463379	-1529.95361328125	282.5810852050782	118.2429504394532	-1419.9130859375	30.38961029052736	195.7114257812501	-1469.21826171875	17.1972770690918	143.1856079101563	-1477.172485351563	647.9406738281252	73.38800811767581	-1598.211669921876	128.9566345214844	263.9890136718751	-1581.464965820313	1072.05517578125	264.501434326172	-1615.786254882813	1268.406372070313	198.2748870849611	-1588.946533203126	1060.997680664063	191.9617309570313	-1586.825927734376	1059.980102539063	240.5689392089845	-1575.974731445313	1120.541381835938	218.1062774658204	-1551.898071289063	1526.348876953125	187.7928466796876	-1583.396484375001	1075.874877929688	165.9860076904297	-1634.714233398438	41.92844009399415	193.8047332763673	-1585.971313476563	1445.6416015625	358.8265075683595	
4	0.015	-1441.000854492188	1432.026245117188	203.1891632080079	-1391.156616210938	1241.216796875	216.6942901611329	-1418.599487304688	1028.673828125	351.8907470703126	-1402.842163085938	1031.194091796875	78.09292602539065	-1388.717407226563	780.0308227539067	400.2050781250002	-1429.6748046875	736.2136840820315	379.4026184082032	-1392.523071289063	703.6827392578127	375.7630310058595	-1342.973754882813	402.2895812988284	349.034149169922	-1401.127685546875	381.1959228515626	348.8282470703126	-1382.817993164063	333.9680786132814	343.6506958007814	-1451.800415039063	50.33597183227542	363.9171752929689	-1394.435668945313	46.97102737426759	334.3754272460939	-1491.388061523438	721.1970825195315	55.52791595458987	-1523.22509765625	684.3648071289065	66.85301208496097	-1541.781250000001	358.4537963867189	103.3340454101563	-1575.188964843751	324.6385803222657	113.6572570800782	-1529.117553710938	282.6460266113282	118.3338623046876	-1419.83447265625	30.37182617187501	195.6865386962892	-1469.209716796875	17.22962188720704	143.2601013183594	-1474.258666992188	647.7114257812502	73.29447174072268	-1577.001953125001	121.6297149658204	263.9605407714845	-1575.178466796876	1071.920776367188	264.9304504394532	-1609.577148437501	1268.310302734375	198.1366424560548	-1582.857055664063	1060.690185546875	192.4808654785157	-1580.602661132813	1059.806518554688	241.0165252685548	-1569.873413085938	1120.360473632813	218.3039855957032	-1545.479858398438	1526.205200195313	187.7487792968751	-1577.428833007813	1075.606201171875	166.3823394775391	-1634.575805664063	42.20042419433595	194.3306732177736	-1579.562377929688	1445.352416992188	358.640838623047	
5	0.02	-1434.587524414063	1431.706909179688	203.094696044922	-1384.898559570313	1240.885009765625	216.4432067871095	-1412.12744140625	1028.788452148438	351.5507202148439	-1397.043212890625	1030.587158203125	77.84997558593753	-1380.107788085938	781.0587768554692	400.0733947753909	-1420.766479492188	736.8167724609377	380.1794738769532	-1383.306884765625	704.6561279296877	376.0568847656251	-1329.552856445313	401.8919372558596	348.4085693359376	-1386.9189453125	379.0665283203126	348.7730407714845	-1367.372924804688	332.4960937500001	343.0867004394532	-1427.911010742188	47.30931091308595	363.5762939453126	-1370.56005859375	45.87007904052736	333.9137573242189	-1487.920776367188	721.1236572265627	55.50651550292972	-1519.976928710938	684.5284423828127	67.06387329101565	-1540.615600585938	358.5584411621095	103.4107284545899	-1574.155639648438	324.8838806152345	113.7841110229493	-1528.24853515625	282.7046508789064	118.4573516845704	-1419.756469726563	30.35578727722169	195.6624145507814	-1469.186889648438	17.27434349060059	143.3479919433594	-1471.288452148438	647.4570922851565	73.21971130371097	-1555.535156250001	114.4047317504883	263.8696899414064	-1568.889770507813	1071.707397460938	265.3667602539064	-1603.367797851563	1268.151245117188	198.0086364746095	-1576.770019531251	1060.326171875	192.9853363037111	-1574.374633789063	1059.55908203125	241.4654388427736	-1563.764282226563	1120.109497070313	218.5185699462892	-1539.054199218751	1525.9970703125	187.7064361572266	-1571.455444335938	1075.279174804688	166.7900543212891	-1634.442382812501	42.48144149780275	194.887908935547	-1573.148803710938	1445.011474609375	358.4641723632814	
6	0.025	-1428.161987304688	1431.318481445313	203.0097045898439	-1378.634399414063	1240.474609375	216.2144317626954	-1405.648071289063	1028.819702148438	351.2475585937501	-1391.230224609375	1029.92236328125	77.62758636474612	-1371.554809570313	781.9901733398442	399.9418945312502	-1411.93115234375	737.3388671875002	380.9620361328126	-1374.17138671875	705.534851074219	376.3536987304689	-1316.270751953125	401.4605407714846	347.8018188476564	-1372.792236328125	376.9045410156251	348.6954650878907	-1352.005249023438	331.0320129394532	342.525604248047	-1403.946411132813	44.48303985595705	363.1846008300782	-1346.666625976563	44.96384811401369	333.4126586914064	-1484.404418945313	721.017272949219	55.46989822387698	-1516.668334960938	684.6492309570315	67.25842285156253	-1539.406127929688	358.6538391113282	103.5133209228516	-1573.083374023438	325.1240844726564	113.9312896728516	-1527.348510742188	282.7578735351564	118.6103210449219	-1419.679443359375	30.34153175354005	195.6392974853517	-1469.148315429688	17.33309745788575	143.4492492675782	-1468.259643554688	647.176696777344	73.16716003417972	-1533.8251953125	107.3130187988282	263.7224121093751	-1562.596923828126	1071.416748046875	265.8117065429689	-1597.157958984376	1267.92919921875	197.8909301757814	-1570.683715820313	1059.9072265625	193.4763793945314	-1568.139892578126	1059.239501953125	241.9169769287111	-1557.645507812501	1119.789428710938	218.7523040771486	-1532.620849609375	1525.724609375	187.6660919189454	-1565.474975585938	1074.89501953125	167.2091522216797	-1634.314697265626	42.7734718322754	195.4753723144532	-1566.730590820313	1444.61865234375	358.296600341797	
